<?xml version="1.0" standalone="no"?>
<!DOCTYPE svg PUBLIC "-//W3C//DTD SVG 20010904//EN"
 "http://www.w3.org/TR/2001/REC-SVG-20010904/DTD/svg10.dtd">
<svg version="1.0" xmlns="http://www.w3.org/2000/svg"
 width="1280.000000pt" height="1280.000000pt" viewBox="0 0 1280.000000 1280.000000"
 preserveAspectRatio="xMidYMid meet">
<metadata>
Created by potrace 1.15, written by Peter Selinger 2001-2017
</metadata>
<g transform="translate(0.000000,1280.000000) scale(0.100000,-0.100000)"
fill="#000000" stroke="none">
<path d="M6572 7923 c43 -83 5 -202 -84 -260 -46 -31 -135 -35 -185 -9 l-33
16 -627 -521 c-594 -494 -688 -573 -653 -553 8 4 295 242 638 527 343 285 629
520 636 523 7 3 22 1 33 -3 18 -7 -70 -84 -612 -536 -631 -526 -634 -528 -677
-526 -24 1 -52 -2 -63 -6 -18 -7 -18 -6 -5 7 8 8 309 259 668 557 l652 543
-22 28 c-13 16 -26 28 -30 27 -5 -1 -322 -264 -707 -584 l-699 -583 -107 0
c-120 0 -155 -12 -180 -60 -13 -26 -15 -133 -13 -889 l3 -860 29 -30 c17 -17
35 -31 42 -31 6 0 17 -7 24 -15 7 -9 20 -13 27 -11 8 3 811 6 1785 6 1751 0
1771 0 1798 20 32 22 45 26 34 8 -4 -7 -3 -8 5 -4 6 4 9 11 6 16 -3 5 1 20 10
33 13 21 15 121 13 885 -2 474 0 862 3 862 3 0 16 -12 30 -26 l24 -26 0 -869
0 -869 -28 -27 -27 -28 -1803 0 -1802 0 1755 5 1755 5 -1779 2 c-1416 2 -1777
0 -1767 -10 9 -9 397 -12 1826 -12 l1815 0 32 33 33 32 3 856 c3 945 5 900
-61 939 -17 10 -45 29 -60 42 -26 21 -38 23 -137 23 l-108 0 -49 38 c-26 22
-340 283 -698 581 -466 389 -649 547 -646 559 2 9 4 51 5 94 1 42 5 74 10 71
15 -10 46 -88 46 -118 0 -49 -11 -77 -28 -70 -13 5 -13 3 -1 -11 12 -15 15
-14 26 12 27 64 8 142 -49 202 -42 42 -50 41 -26 -5z m-8 -285 c61 -49 1238
-1027 1261 -1049 19 -19 -6 -19 -1368 -19 -763 0 -1387 3 -1386 8 0 10 1248
1046 1264 1050 8 2 26 -5 40 -14 33 -22 130 -24 167 -3 l28 14 -23 14 c-20 13
-21 13 -9 -2 12 -14 8 -17 -28 -27 -27 -7 -55 -8 -83 -2 l-42 9 30 7 c17 4 46
15 65 25 19 10 37 19 39 20 2 1 22 -14 45 -31z m-1438 -1539 c52 -25 79 -65
170 -252 63 -131 66 -141 67 -212 0 -74 0 -76 -86 -250 -74 -148 -93 -179
-125 -200 -48 -32 -88 -39 -139 -26 -60 16 -95 63 -182 241 -75 154 -76 156
-76 235 0 79 1 82 73 230 84 171 108 207 160 235 48 25 86 25 138 -1z m995 10
c46 -16 107 -76 120 -119 6 -20 9 -103 7 -197 l-3 -161 -31 -39 c-58 -71 -78
-77 -271 -81 l-172 -4 -3 -165 c-3 -149 -5 -166 -22 -179 -26 -18 -56 -18 -84
2 l-22 15 0 470 0 469 224 0 c139 0 236 -4 257 -11z m999 -9 c24 -24 26 -57 4
-88 -15 -22 -19 -22 -245 -22 l-229 0 0 -145 0 -145 103 0 c122 0 141 -9 141
-65 0 -56 -19 -65 -140 -65 l-102 0 -1 -145 -2 -145 230 0 c226 0 230 0 245
-22 22 -31 20 -64 -4 -88 -19 -19 -33 -20 -310 -20 l-290 0 0 485 0 485 290 0
c277 0 291 -1 310 -20z m538 -167 c45 -104 115 -267 156 -363 l75 -174 3 343
3 343 24 19 c31 26 57 24 86 -6 l25 -24 0 -461 0 -460 -90 0 c-49 0 -90 4 -90
9 0 8 -77 186 -246 571 l-63 145 -1 -347 0 -347 -22 -15 c-12 -9 -32 -16 -43
-16 -11 0 -31 7 -43 16 l-22 15 0 470 0 469 84 0 84 0 80 -187z"/>
<path d="M5043 5982 c-6 -4 -45 -76 -87 -161 -51 -104 -76 -165 -76 -189 0
-40 145 -338 169 -347 22 -8 32 7 110 160 95 189 95 191 -7 390 -42 82 -81
150 -87 152 -5 1 -15 -1 -22 -5z"/>
<path d="M5770 5819 l0 -174 165 5 c133 4 168 8 175 20 16 25 12 273 -4 296
-13 17 -30 19 -175 23 l-161 3 0 -173z"/>
</g>
</svg>
